<?xml version="1.0" encoding="UTF-8" standalone="no"?> <!-- Created with Vectornator for iOS (http://vectornator.io/) --><!DOCTYPE svg PUBLIC "-//W3C//DTD SVG 1.1//EN" "http://www.w3.org/Graphics/SVG/1.1/DTD/svg11.dtd">
<svg height="100%" style="fill-rule:evenodd;clip-rule:evenodd;stroke-linecap:round;stroke-linejoin:round;" xmlns:xlink="http://www.w3.org/1999/xlink" xmlns="http://www.w3.org/2000/svg" xml:space="preserve" width="100%" xmlns:vectornator="http://vectornator.io" version="1.1" viewBox="0 0 419.58 297.675">
<metadata>
<vectornator:setting key="DisplayWhiteBackground" value="0"/>
<vectornator:setting key="RulersVisible" value="1"/>
<vectornator:setting key="Units" value="Millimeters"/>
<vectornator:setting key="New" value="1"/>
<vectornator:setting key="DynamicGuides" value="0"/>
<vectornator:setting key="GuidesVisible" value="1"/>
<vectornator:setting key="SnapToPoints" value="0"/>
<vectornator:setting key="SnapToGrid" value="0"/>
<vectornator:setting key="SnapToGuides" value="1"/>
<vectornator:setting key="DimensionsVisible" value="1"/>
<vectornator:setting key="SnapToEdges" value="0"/>
</metadata>
<defs/>
<g id="Ebene 2 kopieren" vectornator:layerName="Ebene 2 kopieren">
<g opacity="1"/>
<g opacity="1"/>
<g opacity="1">
<path d="M34.7691+100.762C37.4111+93.9052+42.412+89.5962+49.7719+87.8349C54.4898+87.2687+58.956+88.055+63.1707+90.1938C65.1207+87.5518+67.6055+86.8913+70.6249+88.2123C70.8136+88.4639+70.9866+88.7155+71.1439+88.9672C71.3011+89.2188+71.4427+89.5019+71.5685+89.8164C71.6314+90.6341+71.5685+91.8293+71.3798+93.402L71.3798+94.723L71.4741+95.5722L71.2854+96.7988L71.3798+97.365L71.1911+100.196C71.1911+101.013+71.0967+101.926+70.908+102.932C71.0338+103.435+71.081+103.954+71.0495+104.489C71.0181+105.024+70.9394+105.637+70.8136+106.329L70.908+107.273C70.8451+107.902+70.735+108.531+70.5777+109.16C70.4205+109.789+70.216+110.418+69.9644+111.047C68.3289+112.494+66.4732+113.091+64.3973+112.84C64.0828+112.714+63.7211+112.525+63.3122+112.273C62.9033+112.022+62.5102+111.739+62.1327+111.424C60.8117+100.793+56.4713+96.8303+49.1114+99.5352C45.7145+103.624+48.7969+108.405+58.3584+113.878C68.4861+119.665+71.2854+128.44+66.7563+140.203C59.3964+152.218+49.2058+155.458+36.1844+149.922C33.9828+152.187+31.4666+152.847+28.6358+151.904L27.5979+150.394C27.4721+149.45+27.4721+148.255+27.5979+146.808L27.5979+145.393L27.5979+143.978C27.535+142.782+27.535+141.807+27.5979+141.052L27.5035+137.656L27.5979+136.901C27.4721+136.586+27.4249+136.193+27.4564+135.721C27.4878+135.25+27.535+134.762+27.5979+134.259L27.5979+133.126L28.164+129.352C29.8625+127.528+32.0012+126.867+34.5804+127.371C35.2723+127.748+35.8385+128.346+36.2788+129.163C37.7885+139.228+42.5693+143.254+50.6211+141.241C51.0615+140.927+51.5018+140.534+51.9421+140.062C52.3825+139.59+52.8228+139.04+53.2631+138.41C54.018+136.398+53.9865+134.416+53.1688+132.466C52.8543+132.026+52.4611+131.554+51.9893+131.051C51.5175+130.547+50.9357+130.044+50.2437+129.541L49.1114+128.503L48.734+128.126L41.5628+122.936C41.3741+122.81+41.1225+122.637+40.8079+122.417C40.4934+122.197+40.1474+121.929+39.77+121.615L39.1095+120.954C38.4176+120.451+37.7256+119.728+37.0336+118.784L35.3352+116.614C32.9448+112.211+32.7561+106.927+34.7691+100.762ZM32.6932+100.007L32.6932+100.101C32.19+101.611+31.8283+103.058+31.6081+104.442C31.3879+105.826+31.2778+107.21+31.2778+108.594C31.2778+111.865+31.9698+114.853+33.3537+117.557L35.3352+120.105C36.2159+121.237+37.0336+122.087+37.7885+122.653L38.3547+123.219C38.5434+123.408+38.7793+123.628+39.0623+123.879C39.3454+124.131+39.6128+124.351+39.8644+124.54L41.7515+126.333C41.8773+126.459+42.0346+126.6+42.2233+126.757C42.412+126.915+42.5693+127.056+42.6951+127.182L43.2612+127.748C43.5758+128+43.8903+128.251+44.2048+128.503C44.5193+128.755+44.771+128.943+44.9597+129.069L45.1484+129.163L51.2816+133.693C51.5332+134.259+51.6591+134.856+51.6591+135.485C51.6591+136.114+51.5018+136.838+51.1873+137.656C50.7469+138.348+50.2751+138.851+49.7719+139.165C49.2058+139.291+48.6711+139.386+48.1678+139.448C47.6646+139.511+47.2243+139.543+46.8468+139.543C45.7774+139.543+44.8968+139.386+44.2048+139.071C43.5758+137.435+43.1354+135.548+42.8838+133.41C42.5064+132.655+42.0346+131.994+41.4684+131.428L38.2603+128.314C37.5683+127.119+36.5304+126.081+35.1465+125.2L34.9578+125.2C34.7062+125.138+34.4545+125.09+34.2029+125.059C33.9513+125.027+33.5739+125.012+33.0706+125.012C30.4286+125.012+28.1011+126.113+26.0882+128.314L25.4277+132.843L25.4277+134.259C25.4277+134.322+25.4119+134.369+25.3805+134.4C25.349+134.432+25.3333+134.479+25.3333+134.542L25.3333+134.825C25.3333+134.951+25.3176+135.045+25.2861+135.108C25.2547+135.171+25.239+135.265+25.239+135.391L25.239+135.768C25.239+135.957+25.239+136.177+25.239+136.429C25.239+136.618+25.2704+136.838+25.3333+137.089L25.3333+137.561L25.4277+140.958C25.3648+141.273+25.3333+141.556+25.3333+141.807C25.3333+141.996+25.3333+142.185+25.3333+142.374C25.3333+142.688+25.3333+143.003+25.3333+143.317C25.3333+143.632+25.3648+143.946+25.4277+144.261L25.4277+146.62C25.3648+146.997+25.3333+147.374+25.3333+147.752C25.3333+148.129+25.3333+148.475+25.3333+148.79C25.3333+149.23+25.3333+149.639+25.3333+150.016C25.3333+150.394+25.3648+150.708+25.4277+150.96L27.4092+153.791C27.6608+153.917+27.8495+153.979+27.9753+153.979L32.2214+158.226C33.6053+158.666+34.8005+158.886+35.807+158.886C37.82+158.886+39.6757+158.226+41.3741+156.905C45.2113+158.414+48.8598+159.169+52.3196+159.169C60.7488+159.169+67.7313+154.609+73.2669+145.487C74.7137+141.776+75.4371+138.253+75.4371+134.919C75.4371+129.572+73.5814+125.043+69.8701+121.332L67.5111+119.067L67.228+118.784C67.7313+119.036+68.266+119.256+68.8321+119.445C69.0208+119.445+69.241+119.46+69.4926+119.492C69.7442+119.523+69.933+119.539+70.0588+119.539C72.3233+119.539+74.3992+118.658+76.2864+116.897C76.6009+116.142+76.8525+115.356+77.0412+114.538C77.2299+113.72+77.3872+112.871+77.513+111.99L77.4187+111.33C77.6074+110.701+77.7017+109.915+77.7017+108.971C77.7017+108.656+77.686+108.389+77.6545+108.169C77.6231+107.949+77.6074+107.776+77.6074+107.65C77.6703+107.147+77.7175+106.691+77.7489+106.282C77.7804+105.873+77.7961+105.417+77.7961+104.914L77.9848+101.894L77.8904+101.517L78.0792+100.384L77.9848+99.2521L77.9848+98.1198C78.0477+97.6166+78.0949+97.1605+78.1263+96.7517C78.1578+96.3428+78.1735+95.8867+78.1735+95.3835L78.1735+94.0625C77.9219+93.6221+77.686+93.1975+77.4658+92.7886C77.2457+92.3798+76.9469+91.9237+76.5694+91.4205L72.8895+87.8349C72.7637+87.6462+72.6379+87.4417+72.5121+87.2215C72.3863+87.0014+72.1975+86.734+71.9459+86.4195C70.3733+85.7276+68.9894+85.3816+67.7942+85.3816C66.0328+85.3816+64.3344+86.105+62.6989+87.5518C59.4907+86.1679+56.1568+85.4759+52.697+85.4759C52.1308+85.4759+51.5962+85.4917+51.0929+85.5231C50.5897+85.5546+50.0864+85.6017+49.5832+85.6646C41.2168+87.6147+35.5868+92.3955+32.6932+100.007ZM54.3954+107.556C54.3954+106.989+54.5841+106.423+54.9616+105.857C56.0939+105.48+57.1003+105.291+57.981+105.291L58.3584+105.291C59.1133+107.115+59.6794+109.474+60.0569+112.368C59.7423+112.305+59.5222+112.179+59.3964+111.99C58.4528+111.487+57.5879+110.984+56.8015+110.481C56.0152+109.977+55.2761+109.474+54.5841+108.971C54.4583+108.342+54.3954+107.87+54.3954+107.556ZM56.7544+111.802C56.5027+111.613+56.2826+111.393+56.0939+111.141L56.7544+111.802Z" opacity="1" fill="#812f33"/>
<path d="M75.2925+132.56C75.4812+118.847+82.3378+109.946+95.8624+105.857C104.984+104.725+110.645+107.524+112.847+114.255C113.224+120.231+110.142+123.376+103.6+123.691C100.266+122.244+98.473+119.287+98.2214+114.821C96.9004+114.695+95.5794+114.947+94.2583+115.576C91.2389+117.903+89.509+121.049+89.0687+125.012C88.3767+128.975+89.4461+132.403+92.2768+135.297C96.9947+137.373+101.492+135.485+105.77+129.635C107.091+129.006+108.443+129.006+109.827+129.635C111.463+130.893+111.935+132.655+111.243+134.919C106.147+144.166+99.0706+148.727+90.0123+148.601C80.9539+147.846+76.0473+142.499+75.2925+132.56ZM73.1223+132.749C73.5626+139.794+76.0159+144.827+80.4822+147.846L83.2185+150.488C85.9863+153.256+89.7606+154.829+94.5414+155.206L95.0132+155.206C104.763+155.206+112.281+150.394+117.565+140.769C117.942+139.386+118.131+138.379+118.131+137.75C118.131+136.114+117.502+134.668+116.244+133.41L112.941+130.107C112.878+129.981+112.752+129.824+112.564+129.635C117.156+128.188+119.452+124.949+119.452+119.916L119.452+118.69C118.634+116.236+117.407+114.192+115.772+112.557L115.111+111.99C115.237+112.116+115.332+112.179+115.394+112.179L113.224+110.009C110.331+105.606+105.77+103.404+99.5424+103.404C98.1585+103.404+96.806+103.498+95.485+103.687C80.7652+108.153+73.311+117.778+73.1223+132.56L73.1223+132.749ZM95.485+131.994C95.485+131.68+95.5007+131.349+95.5322+131.003C95.5636+130.657+95.6108+130.296+95.6737+129.918C95.9253+127.15+96.9947+124.792+98.8819+122.842C99.1964+123.219+99.5581+123.565+99.967+123.879C100.376+124.194+100.8+124.508+101.241+124.823L104.355+127.937C101.461+131.963+98.6617+133.976+95.9568+133.976L95.5794+133.976C95.4535+133.661+95.4064+133.347+95.4378+133.032C95.4693+132.718+95.485+132.372+95.485+131.994ZM98.3157+138.694C98.2528+138.694+98.1899+138.662+98.127+138.599L98.3157+138.694Z" opacity="1" fill="#812f33"/>
<path d="M142.519+118.029C141.89+116.96+140.915+116.457+139.594+116.52C138.021+117.212+136.543+118.155+135.159+119.35L132.612+137.184L132.517+139.071C134.404+140.266+136.732+140.392+139.5+139.448C139.814+138.442+140.082+137.341+140.302+136.146C140.522+134.951+140.695+133.63+140.821+132.183L142.519+118.784C142.519+118.721+142.503+118.627+142.472+118.501C142.44+118.375+142.456+118.218+142.519+118.029ZM131.196+89.2502C132.203+88.9986+133.178+88.7155+134.121+88.401C136.449+87.9607+138.116+88.747+139.122+90.76L136.858+107.178C152.521+102.146+158.654+108.405+155.257+125.955L153.37+139.26C154.817+139.511+156.107+140.298+157.239+141.619L156.673+145.865L156.39+146.431C155.635+147.123+154.848+147.5+154.031+147.563L114.778+147.563C114.275+147.186+113.803+146.62+113.363+145.865C113.174+142.028+114.998+139.826+118.835+139.26L124.308+100.479L124.591+99.8183C120.754+99.8183+119.464+97.7739+120.723+93.685C121.037+93.056+121.509+92.5213+122.138+92.081L127.799+90.3825L129.592+89.8164L131.196+89.2502ZM130.441+87.1744L128.743+87.7405L128.743+87.8349L127.139+88.3067L121.289+90.0994C120.597+90.5398+120.046+90.9958+119.637+91.4676C119.229+91.9394+118.93+92.364+118.741+92.7415C118.552+93.4963+118.395+94.1568+118.269+94.723C118.143+95.2891+118.08+95.8238+118.08+96.327C118.08+98.7803+118.993+100.416+120.817+101.234L121.76+102.177L116.854+137.561C113.08+138.819+111.192+141.398+111.192+145.299L111.192+146.525C111.884+147.658+112.828+148.727+114.023+149.733L114.306+149.733L117.326+152.753C117.514+153.067+117.766+153.319+118.08+153.508C118.206+153.633+118.332+153.744+118.458+153.838C118.584+153.932+118.71+154.042+118.835+154.168L158.937+154.168C160.195+154.105+161.453+153.476+162.712+152.281L163.278+151.149L163.938+145.77C163.75+145.582+163.577+145.393+163.419+145.204C163.262+145.016+163.089+144.827+162.9+144.638L160.258+141.996L161.862+131.051C162.177+129.478+162.413+127.968+162.57+126.521C162.727+125.075+162.806+123.691+162.806+122.37C162.806+117.4+161.642+113.752+159.315+111.424L156.295+108.405C154.219+105.008+150.728+103.309+145.822+103.309C145.633+103.309+145.413+103.309+145.161+103.309C144.972+103.309+144.784+103.341+144.595+103.404L145.822+95.1948C145.381+94.2512+144.815+93.4334+144.123+92.7415L141.009+89.6277C140.317+88.3696+139.484+87.4732+138.509+86.9385C137.534+86.4038+136.48+86.1364+135.348+86.1364C134.656+86.1364+134.153+86.1679+133.838+86.2308C133.398+86.3566+132.895+86.5139+132.328+86.7026C131.762+86.8913+131.196+87.0486+130.63+87.1744L130.441+87.1744Z" opacity="1" fill="#812f33"/>
<path d="M190.025+115.482C189.522+115.23+189.018+115.026+188.515+114.868C188.012+114.711+187.414+114.601+186.722+114.538C185.653+114.853+184.647+115.356+183.703+116.048C180.935+119.759+179.803+123.911+180.306+128.503C180.117+132.089+180.998+135.423+182.948+138.505C183.892+139.197+185.055+139.574+186.439+139.637C187.32+139.323+188.264+138.819+189.27+138.127C191.66+134.856+192.919+131.176+193.044+127.088C193.611+122.684+192.604+118.816+190.025+115.482ZM165.869+131.334C165.681+118.187+172.16+109.631+185.307+105.668C198.832+104.222+206.16+109.82+207.292+122.464C207.041+135.926+200.499+144.512+187.666+148.224C174.519+150.048+167.253+144.418+165.869+131.334ZM163.699+131.522C164.454+139.134+167.096+144.512+171.625+147.658L174.362+150.3C177.57+153.508+182.067+155.112+187.855+155.112C189.427+155.112+191.031+155.017+192.667+154.829C206.506+150.866+213.583+141.587+213.897+126.993C213.331+120.954+211.507+116.394+208.425+113.311L205.783+110.764C202.512+105.794+196.976+103.309+189.176+103.309C188.484+103.309+187.76+103.309+187.006+103.309C186.314+103.309+185.622+103.372+184.93+103.498C170.776+107.776+163.699+116.866+163.699+130.768L163.699+131.522ZM191.063+124.823C191.063+125.138+191.047+125.468+191.016+125.814C190.984+126.16+190.937+126.521+190.874+126.899C190.748+130.547+189.742+133.756+187.855+136.523C187.729+136.649+187.603+136.728+187.477+136.759C187.351+136.791+187.226+136.869+187.1+136.995C187.037+136.492+186.99+136.02+186.958+135.58C186.927+135.139+186.911+134.668+186.911+134.164L186.911+132.938C186.848+132.623+186.817+132.34+186.817+132.089C186.817+131.837+186.817+131.554+186.817+131.239C186.817+127.78+187.823+124.729+189.836+122.087C190.214+121.835+190.465+121.678+190.591+121.615C190.906+122.747+191.063+123.817+191.063+124.823Z" opacity="1" fill="#812f33"/>
<path d="M234.983+115.482C234.48+115.23+233.977+115.026+233.473+114.868C232.97+114.711+232.373+114.601+231.681+114.538C230.611+114.853+229.605+115.356+228.661+116.048C225.893+119.759+224.761+123.911+225.264+128.503C225.076+132.089+225.956+135.423+227.906+138.505C228.85+139.197+230.014+139.574+231.398+139.637C232.278+139.323+233.222+138.819+234.228+138.127C236.619+134.856+237.877+131.176+238.003+127.088C238.569+122.684+237.562+118.816+234.983+115.482ZM210.828+131.334C210.639+118.187+217.118+109.631+230.265+105.668C243.79+104.222+251.118+109.82+252.251+122.464C251.999+135.926+245.457+144.512+232.624+148.224C219.477+150.048+212.212+144.418+210.828+131.334ZM208.657+131.522C209.412+139.134+212.054+144.512+216.583+147.658L219.32+150.3C222.528+153.508+227.026+155.112+232.813+155.112C234.386+155.112+235.99+155.017+237.625+154.829C251.464+150.866+258.541+141.587+258.856+126.993C258.289+120.954+256.465+116.394+253.383+113.311L250.741+110.764C247.47+105.794+241.934+103.309+234.134+103.309C233.442+103.309+232.719+103.309+231.964+103.309C231.272+103.309+230.58+103.372+229.888+103.498C215.734+107.776+208.657+116.866+208.657+130.768L208.657+131.522ZM236.021+124.823C236.021+125.138+236.005+125.468+235.974+125.814C235.942+126.16+235.895+126.521+235.832+126.899C235.707+130.547+234.7+133.756+232.813+136.523C232.687+136.649+232.561+136.728+232.436+136.759C232.31+136.791+232.184+136.869+232.058+136.995C231.995+136.492+231.948+136.02+231.917+135.58C231.885+135.139+231.869+134.668+231.869+134.164L231.869+132.938C231.806+132.623+231.775+132.34+231.775+132.089C231.775+131.837+231.775+131.554+231.775+131.239C231.775+127.78+232.782+124.729+234.794+122.087C235.172+121.835+235.424+121.678+235.549+121.615C235.864+122.747+236.021+123.817+236.021+124.823Z" opacity="1" fill="#812f33"/>
<path d="M275.695+88.401C278.337+87.9607+279.973+88.9357+280.602+91.3261L273.903+139.26C278.243+139.511+279.753+141.713+278.432+145.865C278.18+146.116+277.913+146.384+277.63+146.667C277.347+146.95+277.016+147.249+276.639+147.563L255.031+147.563C254.276+147.06+253.836+146.368+253.71+145.487C253.521+141.65+255.692+139.574+260.221+139.26C260.472+138.442+260.661+137.435+260.787+136.24L265.977+99.8183C260.944+100.196+259.34+97.9626+261.164+93.1189C261.416+92.6786+261.888+92.2697+262.58+91.8922L267.014+90.76C267.895+90.5712+268.65+90.3825+269.279+90.1938C269.908+90.0051+270.506+89.8164+271.072+89.6277L272.204+89.4389L275.695+88.401ZM270.223+87.6462C269.594+87.8349+268.98+88.0236+268.383+88.2123C267.785+88.401+267.14+88.5583+266.448+88.6841L261.73+89.9107C261.101+90.2253+260.598+90.5712+260.221+90.9487C259.843+91.3261+259.497+91.735+259.183+92.1753C258.868+92.8673+258.632+93.575+258.475+94.2984C258.318+95.0218+258.239+95.7294+258.239+96.4214C258.239+98.8118+259.151+100.447+260.976+101.328L263.146+103.593L258.617+136.052C258.554+136.303+258.522+136.523+258.522+136.712C258.522+136.901+258.491+137.121+258.428+137.373C253.836+138.316+251.54+140.864+251.54+145.016L251.54+145.676C251.666+146.431+251.964+147.17+252.436+147.893C252.908+148.617+253.521+149.23+254.276+149.733L254.465+149.733L257.956+153.225C258.271+153.602+258.68+153.917+259.183+154.168L282.017+154.168C282.395+153.854+282.898+153.398+283.527+152.8C284.156+152.202+284.596+151.778+284.848+151.526C285.037+150.834+285.194+150.205+285.32+149.639C285.446+149.073+285.509+148.538+285.509+148.035C285.509+146.399+285.005+145.078+283.999+144.072L280.979+141.052L287.207+96.044C286.704+94.4084+286.106+93.2447+285.414+92.5527L281.923+89.0615C280.791+87.1115+279.124+86.1364+276.922+86.1364L275.601+86.1364L271.732+87.2687L270.6+87.4574L270.223+87.6462Z" opacity="1" fill="#812f33"/>
<path d="M330.322+115.482C329.819+115.23+329.316+115.026+328.812+114.868C328.309+114.711+327.712+114.601+327.02+114.538C325.95+114.853+324.944+115.356+324+116.048C321.232+119.759+320.1+123.911+320.603+128.503C320.415+132.089+321.295+135.423+323.245+138.505C324.189+139.197+325.353+139.574+326.736+139.637C327.617+139.323+328.561+138.819+329.567+138.127C331.958+134.856+333.216+131.176+333.342+127.088C333.908+122.684+332.901+118.816+330.322+115.482ZM306.167+131.334C305.978+118.187+312.457+109.631+325.604+105.668C339.129+104.222+346.457+109.82+347.589+122.464C347.338+135.926+340.796+144.512+327.963+148.224C314.816+150.048+307.55+144.418+306.167+131.334ZM303.996+131.522C304.751+139.134+307.393+144.512+311.922+147.658L314.659+150.3C317.867+153.508+322.365+155.112+328.152+155.112C329.724+155.112+331.329+155.017+332.964+154.829C346.803+150.866+353.88+141.587+354.195+126.993C353.628+120.954+351.804+116.394+348.722+113.311L346.08+110.764C342.809+105.794+337.273+103.309+329.473+103.309C328.781+103.309+328.057+103.309+327.303+103.309C326.611+103.309+325.919+103.372+325.227+103.498C311.073+107.776+303.996+116.866+303.996+130.768L303.996+131.522ZM331.36+124.823C331.36+125.138+331.344+125.468+331.313+125.814C331.281+126.16+331.234+126.521+331.171+126.899C331.045+130.547+330.039+133.756+328.152+136.523C328.026+136.649+327.9+136.728+327.774+136.759C327.649+136.791+327.523+136.869+327.397+136.995C327.334+136.492+327.287+136.02+327.255+135.58C327.224+135.139+327.208+134.668+327.208+134.164L327.208+132.938C327.145+132.623+327.114+132.34+327.114+132.089C327.114+131.837+327.114+131.554+327.114+131.239C327.114+127.78+328.12+124.729+330.133+122.087C330.511+121.835+330.762+121.678+330.888+121.615C331.203+122.747+331.36+123.817+331.36+124.823Z" opacity="1" fill="#812f33"/>
<path d="M360.844+106.14C362.228+97.2077+367.543+91.3576+376.79+88.5897L383.772+88.5897C389.245+89.722+391.353+93.1818+390.094+98.9691C384.936+105.26+380.281+104.756+376.13+97.4593C374.934+99.8497+374.337+102.806+374.337+106.329C379.809+105.574+382.797+106.675+383.301+109.631C383.175+111.707+382.326+113.626+380.753+115.387C379.055+115.828+377.042+116.016+374.714+115.953C374.022+115.828+373.362+115.89+372.733+116.142L369.808+137.089L369.808+138.222L369.808+138.977C369.808+139.102+369.87+139.354+369.996+139.731L374.242+140.015L375.28+140.581C376.979+142.971+376.444+145.361+373.676+147.752L350.464+147.752C350.338+147.626+350.15+147.437+349.898+147.186C349.647+146.934+349.363+146.588+349.049+146.148C348.86+141.87+350.936+139.763+355.277+139.826C355.528+139.763+355.78+139.543+356.031+139.165L359.24+116.142C356.786+116.331+354.899+115.513+353.578+113.689L354.333+108.499C355.906+106.612+358.076+105.826+360.844+106.14ZM352.257+107.65L351.313+114.255C352.32+115.639+353.358+116.645+354.427+117.274L356.503+119.35L354.05+137.656C349.269+137.907+346.879+140.549+346.879+145.582L346.879+146.903C347.382+147.595+347.885+148.192+348.388+148.695C348.892+149.199+349.301+149.608+349.615+149.922L349.992+149.922L354.427+154.357L379.055+154.357C381.571+152.092+382.829+149.985+382.829+148.035C382.829+146.714+382.263+145.267+381.13+143.695L377.262+139.826C377.136+139.7+377.057+139.59+377.026+139.496C376.994+139.401+376.916+139.291+376.79+139.165L379.149+122.558L380.564+122.558C382.451+122.558+384.433+122.275+386.509+121.709C388.648+119.256+389.78+116.74+389.906+114.161C389.717+112.84+389.214+111.77+388.396+110.952L387.264+109.915L388.019+109.915C390.786+109.915+393.649+108.122+396.605+104.536C396.731+103.907+396.841+103.294+396.935+102.696C397.03+102.099+397.077+101.454+397.077+100.762C397.077+98.0569+396.291+95.9182+394.718+94.3455L391.415+91.1374C390.094+88.747+387.704+87.1744+384.244+86.4195L376.413+86.4195C366.977+89.1873+361.19+95.006+359.051+103.876C356.535+104.064+354.27+105.322+352.257+107.65ZM376.413+143.695L376.507+143.789L376.413+143.695Z" opacity="1" fill="#812f33"/>
</g>
<g opacity="1">
<path d="M38.6521+164.447C38.8534+161.293+37.1592+159.867+33.5694+160.169C33.4687+160.471+33.3933+160.815+33.3429+161.201C33.2926+161.587+33.2339+162.015+33.1668+162.484L32.261+168.875C35.6159+169.278+37.7463+167.802+38.6521+164.447ZM14.3456+164.749C13.6411+159.247+16.476+155.875+22.8504+154.634L37.5953+154.634C38.2328+154.634+38.9037+154.734+39.6083+154.936L40.2122+155.036L40.5141+155.036C40.7154+155.171+41.0425+155.288+41.4954+155.389C41.9483+155.489+42.4432+155.707+42.98+156.043C43.0806+156.076+43.1897+156.127+43.3071+156.194C43.4245+156.261+43.5671+156.345+43.7348+156.445L45.0433+157.452C46.4523+159.029+47.1569+161.092+47.1569+163.642C46.7543+167.768+44.4729+171.056+40.3128+173.505C40.3464+180.148+42.8626+186.808+47.8614+193.484C51.8202+198.315+57.0372+198.801+63.5122+194.943C62.8747+193.299+63.4283+191.857+65.1729+190.615C66.4477+190.213+67.4878+190.532+68.293+191.572C68.6284+193.115+68.3433+194.725+67.4374+196.403C66.9342+197.04+66.3639+197.644+65.7264+198.214C65.089+198.785+64.3677+199.305+63.5625+199.774L60.4927+201.083L57.0204+201.737L51.6357+201.737C51.4009+201.67+51.1576+201.62+50.906+201.586C50.6544+201.552+50.3944+201.519+50.126+201.485C49.455+201.318+48.8679+201.116+48.3646+200.881C48.0963+200.848+47.7943+200.747+47.4588+200.58C47.3582+200.479+47.1065+200.345+46.704+200.177L45.7478+199.674C38.4676+193.601+34.4752+185.549+33.7707+175.518L31.4055+175.619L30.3487+183.318L30.8519+183.721C31.8919+183.587+32.7978+183.939+33.5694+184.778C33.6029+185.18+33.6029+185.591+33.5694+186.011C33.5358+186.43+33.452+186.875+33.3178+187.344C33.15+187.512+32.9571+187.688+32.739+187.873C32.521+188.057+32.2777+188.25+32.0093+188.451L19.3277+188.552C19.16+188.451+19.009+188.351+18.8748+188.25C18.7406+188.15+18.6064+188.049+18.4722+187.948C17.5664+185.398+18.7574+183.889+22.0452+183.419C22.1123+183.151+22.171+182.849+22.2213+182.513C22.2717+182.178+22.3304+181.825+22.3975+181.456L25.3666+160.471L25.4169+159.767C24.1756+159.331+22.7162+159.364+21.0387+159.867L20.8374+160.069C21.6762+161.88+21.2903+163.692+19.68+165.504C18.4051+166.51+17.0296+166.678+15.5534+166.007C15.0166+165.671+14.614+165.252+14.3456+164.749ZM13.3895+165.453C13.6914+166.024+14.2114+166.544+14.9495+167.013C14.9831+167.047+14.9998+167.064+14.9998+167.064C15.0334+167.064+15.0669+167.081+15.1005+167.114L16.7109+168.674C16.8451+168.808+16.9625+168.926+17.0631+169.026C17.1638+169.127+17.298+169.228+17.4657+169.328C18.3715+169.731+19.1432+169.932+19.7806+169.932C20.7535+169.932+21.7768+169.546+22.8504+168.775C22.8839+168.708+22.951+168.624+23.0517+168.523L21.24+181.305L21.089+182.262C21.089+182.295+21.0807+182.329+21.0639+182.362C21.0471+182.396+21.0387+182.429+21.0387+182.463C18.3548+183.067+17.0128+184.392+17.0128+186.438C17.0128+187.042+17.1638+187.764+17.4657+188.602C17.5999+188.737+17.7341+188.854+17.8683+188.955C18.0025+189.055+18.1367+189.156+18.2709+189.257L20.1329+191.068C20.4013+191.27+20.6445+191.446+20.8626+191.597C21.0807+191.748+21.3071+191.907+21.542+192.075L34.8778+191.974C35.2133+191.739+35.532+191.496+35.834+191.244C36.1359+190.993+36.4211+190.733+36.6895+190.464C39.0379+194.692+41.5374+197.862+44.1878+199.976L44.691+200.479C45.6304+201.418+46.6536+202.291+47.7608+203.096L48.3143+203.649C48.3479+203.683+48.5324+203.7+48.8679+203.7L49.3711+203.901C49.6731+204.069+49.9331+204.186+50.1512+204.253C50.3692+204.32+50.5286+204.371+50.6292+204.404C51.1325+204.572+51.837+204.773+52.7428+205.008C52.9106+205.042+53.0951+205.067+53.2964+205.084C53.4977+205.1+53.7325+205.159+54.0009+205.26L59.7379+205.26L63.1599+204.605L66.5316+203.196C68.2091+202.156+69.6685+200.865+70.9098+199.321C71.6143+198.08+71.9666+196.772+71.9666+195.396C71.9666+194.96+71.8827+194.373+71.715+193.635C71.5137+193.366+71.3459+193.165+71.2117+193.031L69.3498+191.219L69.3498+191.119C68.9136+190.481+68.4188+190.02+67.8652+189.735C67.3116+189.45+66.7497+189.307+66.1793+189.307C65.911+189.307+65.4413+189.391+64.7703+189.559C62.9922+190.8+62.1031+192.159+62.1031+193.635C62.1031+193.769+62.1031+193.886+62.1031+193.987C62.1031+194.088+62.1199+194.222+62.1534+194.39C59.6372+195.732+57.4565+196.403+55.6113+196.403C53.699+196.403+51.9209+195.698+50.277+194.289C46.8885+189.592+44.7413+183.687+43.8355+176.575C47.9621+173.958+50.2434+170.519+50.6796+166.259C50.6796+163.407+49.8576+161.058+48.2137+159.213L46.553+157.553C46.4188+157.385+46.293+157.225+46.1756+157.074C46.0581+156.923+45.9323+156.764+45.7981+156.596L44.2884+155.439C44.2213+155.439+44.1878+155.422+44.1878+155.389C44.1542+155.355+44.1207+155.33+44.0871+155.313C44.0536+155.296+44.02+155.271+43.9865+155.238C43.8858+155.171+43.8103+155.129+43.76+155.112C43.7097+155.095+43.5839+155.053+43.3826+154.986C42.6445+154.583+42.0406+154.315+41.5709+154.181L41.3696+154.181C41.3025+154.181+41.2438+154.172+41.1935+154.156C41.1432+154.139+41.0341+154.047+40.8664+153.879L40.3631+153.879L39.8599+153.829C39.1218+153.594+38.3669+153.476+37.5953+153.476L22.5988+153.476C16.2579+154.751+13.0875+157.989+13.0875+163.189C13.0875+163.457+13.0959+163.717+13.1127+163.969C13.1295+164.22+13.1546+164.48+13.1882+164.749L13.1882+164.9L13.3895+165.453ZM36.6895+165.151C36.723+164.984+36.7398+164.849+36.7398+164.749C36.7398+164.648+36.7566+164.531+36.7901+164.397C36.8237+164.262+36.8405+164.145+36.8405+164.044C36.8405+163.91+36.8572+163.776+36.8908+163.642L36.9914+163.642C37.1927+163.642+37.3605+163.658+37.4947+163.692L37.4947+163.944L37.4947+164.346C37.2598+165.118+36.9243+165.806+36.4882+166.41L36.6895+165.151Z" opacity="1" fill="#812f33"/>
<path d="M59.8388+169.882C59.5704+169.748+59.3021+169.639+59.0337+169.555C58.7653+169.471+58.4465+169.412+58.0775+169.379C57.5072+169.546+56.9704+169.815+56.4671+170.184C54.991+172.163+54.3871+174.378+54.6555+176.827C54.5548+178.739+55.0245+180.517+56.0645+182.161C56.5678+182.53+57.1884+182.731+57.9265+182.765C58.3962+182.597+58.8995+182.329+59.4363+181.96C60.7111+180.215+61.3821+178.252+61.4492+176.072C61.7512+173.723+61.2144+171.66+59.8388+169.882ZM46.9559+178.336C46.8553+171.325+50.3108+166.762+57.3226+164.648C64.5357+163.877+68.4442+166.862+69.0481+173.606C68.9139+180.785+65.4248+185.365+58.5807+187.344C51.5689+188.317+47.694+185.315+46.9559+178.336ZM45.7984+178.437C46.201+182.496+47.6101+185.365+50.0257+187.042L51.4851+188.451C53.1961+190.162+55.5949+191.018+58.6814+191.018C59.5201+191.018+60.3756+190.968+61.2479+190.867C68.6288+188.753+72.4031+183.805+72.5708+176.021C72.2689+172.801+71.2959+170.368+69.652+168.724L68.243+167.366C66.4984+164.715+63.546+163.39+59.3859+163.39C59.0169+163.39+58.6311+163.39+58.2285+163.39C57.8594+163.39+57.4904+163.424+57.1213+163.491C49.5727+165.772+45.7984+170.62+45.7984+178.034L45.7984+178.437ZM60.3924+174.864C60.3924+175.032+60.384+175.208+60.3672+175.392C60.3505+175.577+60.3253+175.77+60.2918+175.971C60.2247+177.917+59.6879+179.628+58.6814+181.104C58.6143+181.171+58.5472+181.213+58.4801+181.23C58.413+181.247+58.3459+181.289+58.2788+181.356C58.2452+181.087+58.2201+180.836+58.2033+180.601C58.1865+180.366+58.1782+180.114+58.1782+179.846L58.1782+179.192C58.1446+179.024+58.1278+178.873+58.1278+178.739C58.1278+178.605+58.1278+178.454+58.1278+178.286C58.1278+176.441+58.6646+174.814+59.7382+173.405C59.9395+173.27+60.0737+173.187+60.1408+173.153C60.3085+173.757+60.3924+174.327+60.3924+174.864Z" opacity="1" fill="#812f33"/>
<path d="M71.0111+178.991C71.1117+171.677+74.7686+166.93+81.9817+164.749C86.8464+164.145+89.8658+165.638+91.04+169.228C91.2413+172.415+89.5974+174.092+86.1083+174.26C84.3302+173.488+83.374+171.912+83.2398+169.53C82.5353+169.463+81.8308+169.597+81.1262+169.932C79.5158+171.174+78.5932+172.851+78.3584+174.965C77.9894+177.078+78.5597+178.907+80.0694+180.45C82.5856+181.557+84.9844+180.551+87.2657+177.43C87.9703+177.095+88.6916+177.095+89.4297+177.43C90.302+178.101+90.5536+179.041+90.1845+180.249C87.467+185.18+83.6927+187.613+78.8616+187.546C74.0305+187.143+71.4137+184.291+71.0111+178.991ZM69.8536+179.091C70.0885+182.849+71.3969+185.533+73.7789+187.143L75.2383+188.552C76.7145+190.028+78.7274+190.867+81.2772+191.068L81.5288+191.068C86.729+191.068+90.7381+188.502+93.5562+183.369C93.7575+182.631+93.8582+182.094+93.8582+181.758C93.8582+180.886+93.5227+180.114+92.8517+179.443L91.0904+177.682C91.0568+177.615+90.9897+177.531+90.8891+177.43C93.3382+176.659+94.5627+174.931+94.5627+172.247L94.5627+171.593C94.1266+170.284+93.4724+169.194+92.6001+168.322L92.2478+168.02C92.3149+168.087+92.3652+168.121+92.3988+168.121L91.2413+166.963C89.6981+164.615+87.2657+163.44+83.9444+163.44C83.2063+163.44+82.485+163.491+81.7804+163.591C73.9299+165.973+69.9543+171.106+69.8536+178.991L69.8536+179.091ZM81.7804+178.689C81.7804+178.521+81.7888+178.345+81.8056+178.16C81.8224+177.976+81.8475+177.783+81.8811+177.581C82.0153+176.105+82.5856+174.847+83.5921+173.807C83.7598+174.008+83.9527+174.193+84.1708+174.361C84.3889+174.528+84.6153+174.696+84.8502+174.864L86.5109+176.525C84.9676+178.672+83.4747+179.745+82.032+179.745L81.8308+179.745C81.7637+179.578+81.7385+179.41+81.7553+179.242C81.772+179.074+81.7804+178.89+81.7804+178.689ZM83.2901+182.262C83.2566+182.262+83.223+182.245+83.1895+182.211L83.2901+182.262Z" opacity="1" fill="#812f33"/>
<path d="M101.709+180.601L101.457+182.664C102.028+182.832+102.565+182.865+103.068+182.765L102.162+181.154L101.709+180.601ZM102.414+155.439C103.42+155.238+104.242+155.456+104.879+156.093L105.03+156.999L103.269+169.681L103.269+170.335C103.672+169.899+104.192+169.479+104.829+169.077L105.03+168.875C103.923+167.5+104.242+166.191+105.987+164.95L115.045+164.849L115.498+164.95L115.9+165.051C116.303+165.453+116.571+165.94+116.706+166.51C116.605+167.45+116.186+168.272+115.448+168.976C114.911+169.11+114.24+169.211+113.435+169.278L112.629+169.379C112.294+169.513+111.573+169.899+110.465+170.536L109.962+170.939L109.761+171.14L108.956+171.643C108.788+171.845+108.536+172.046+108.201+172.247C108.033+172.415+107.849+172.583+107.647+172.75C107.446+172.918+107.194+173.103+106.892+173.304L106.188+173.908C106.389+174.176+106.641+174.528+106.943+174.965L107.144+175.166L107.647+176.172C107.748+176.307+107.857+176.449+107.974+176.6C108.092+176.751+108.201+176.927+108.301+177.129L108.654+177.531L109.258+178.588C109.425+178.856+109.551+179.058+109.635+179.192C109.719+179.326+109.811+179.46+109.912+179.594L110.516+180.5L110.918+181.054L111.472+181.758C112.244+182.362+113.216+182.782+114.391+183.016C114.726+183.151+114.944+183.386+115.045+183.721C115.313+185.029+114.911+186.12+113.837+186.992L91.9965+186.992C91.5268+186.925+91.1578+186.69+90.8894+186.288C90.5874+184.04+91.7114+182.765+94.2611+182.463L97.2302+161.528C94.714+161.662+93.9424+160.471+94.9153+157.955C95.016+157.787+95.3347+157.536+95.8715+157.2L97.4315+156.798L97.8844+156.697L99.0419+156.395L99.5451+156.294L100.652+155.892C100.887+155.858+101.114+155.808+101.332+155.741C101.55+155.674+101.793+155.607+102.061+155.54L102.414+155.439ZM101.709+154.432C101.642+154.466+101.575+154.483+101.508+154.483C101.441+154.483+101.407+154.5+101.407+154.533C101.407+154.533+101.39+154.533+101.357+154.533L101.256+154.533C101.189+154.6+101.105+154.634+101.005+154.634C100.937+154.634+100.719+154.667+100.35+154.734L99.2935+155.137L99.2432+155.187L98.7399+155.288L97.6831+155.59L97.6831+155.54L97.1296+155.691L95.2173+156.143C94.8147+156.445+94.3617+156.898+93.8585+157.502C93.6908+157.972+93.565+158.391+93.4811+158.76C93.3972+159.129+93.3553+159.465+93.3553+159.767C93.3553+161.075+93.825+161.947+94.7643+162.384L95.7708+163.34L93.2043+181.507C90.8558+182.044+89.6816+183.402+89.6816+185.583C89.6816+185.751+89.6816+185.918+89.6816+186.086C89.6816+186.254+89.7152+186.472+89.7823+186.74C90.0842+187.311+90.5204+187.697+91.0907+187.898L92.6507+189.458C92.7514+189.626+92.852+189.726+92.9527+189.76C93.4559+190.23+93.9424+190.481+94.4121+190.515L116.706+190.515C117.98+189.475+118.618+188.3+118.618+186.992C118.618+186.858+118.618+186.724+118.618+186.589C118.618+186.455+118.601+186.321+118.568+186.187C118.4+185.717+118.182+185.348+117.913+185.08L116.051+183.218C115.716+182.58+115.229+182.127+114.592+181.859C114.089+181.825+113.636+181.725+113.233+181.557L113.133+181.406C113.066+181.339+113.024+181.289+113.007+181.255C112.99+181.222+112.965+181.171+112.931+181.104C112.931+181.071+112.915+181.054+112.881+181.054L112.881+181.054C112.881+181.02+112.873+180.995+112.856+180.978C112.839+180.962+112.831+180.936+112.831+180.903C112.73+180.802+112.663+180.718+112.629+180.651L111.975+179.443L111.573+179.041C111.472+178.873+111.371+178.714+111.271+178.563C111.17+178.412+111.086+178.269+111.019+178.135L110.516+177.129L110.314+176.927C110.247+176.86+110.205+176.81+110.189+176.776C110.172+176.743+110.13+176.692+110.063+176.625C110.499+176.323+110.918+175.971+111.321+175.569C111.489+175.501+111.631+175.409+111.749+175.292C111.866+175.174+111.975+175.065+112.076+174.965L112.831+174.512L113.082+174.26L113.586+173.857C114.022+173.623+114.382+173.421+114.667+173.254C114.953+173.086+115.179+172.968+115.347+172.901L115.397+172.901L116.001+172.801L116.051+172.801C116.756+172.767+117.595+172.616+118.568+172.348C119.071+171.878+119.457+171.375+119.725+170.838C119.993+170.301+120.161+169.697+120.228+169.026C120.094+168.523+119.91+168.07+119.675+167.668C119.44+167.265+119.188+166.93+118.92+166.661L117.209+165C117.108+164.799+116.991+164.623+116.857+164.472C116.722+164.321+116.588+164.162+116.454+163.994L115.749+163.843L115.297+163.692L107.949+163.793L108.553+159.515L108.352+158.156L105.987+155.842L105.987+155.59C105.081+154.684+104.125+154.231+103.118+154.231L102.565+154.231L102.565+154.181L101.709+154.432Z" opacity="1" fill="#812f33"/>
<path d="M143.025+164.246C142.723+161.595+141.029+160.404+137.943+160.673C137.808+161.008+137.716+161.377+137.666+161.78C137.616+162.182+137.557+162.618+137.49+163.088L136.534+169.832C137.641+169.966+138.815+169.815+140.056+169.379C141.969+168.439+142.958+166.728+143.025+164.246ZM120.279+163.088C121.285+158.358+124.355+155.657+129.488+154.986L142.975+154.986C147.135+155.12+149.802+157.15+150.977+161.075L151.228+162.786L151.329+162.988C150.557+171.71+145.357+175.971+135.728+175.77L134.722+182.916C134.755+182.949+134.772+183.084+134.772+183.318C136.819+183.587+137.976+184.191+138.245+185.13C138.245+187.411+137.205+188.519+135.125+188.451L123.802+188.451C123.399+188.217+123.114+187.831+122.946+187.294C122.778+184.878+123.885+183.637+126.267+183.57C126.469+183.503+126.653+183.352+126.821+183.117L129.941+160.975C129.975+160.673+129.874+160.455+129.639+160.32C128.733+160.253+127.76+160.471+126.72+160.975C127.693+163.357+127.056+165.52+124.808+167.466C121.285+168.674+119.776+167.215+120.279+163.088ZM119.121+162.837L119.121+163.088C119.088+163.323+119.063+163.549+119.046+163.768C119.029+163.986+119.021+164.229+119.021+164.497C119.021+166.678+119.675+168.07+120.983+168.674L122.795+170.486C123.399+171.09+124.221+171.392+125.261+171.392C125.898+171.392+126.586+171.274+127.324+171.039L125.714+182.463C123.097+182.664+121.789+184.14+121.789+186.891L121.789+187.495C121.923+187.965+122.116+188.368+122.367+188.703C122.619+189.039+122.996+189.341+123.5+189.609L125.311+191.421C125.546+191.655+125.798+191.84+126.066+191.974L137.792+191.974C140.442+191.974+141.767+190.515+141.767+187.596C141.633+187.16+141.381+186.724+141.012+186.288L139.201+184.476C139.033+184.174+138.798+183.889+138.496+183.62L139.1+179.292C148.762+179.259+154.03+174.596+154.902+165.302L154.701+165L154.499+163.491C153.929+161.646+153.09+160.169+151.983+159.062L150.775+157.854C149.064+155.271+146.464+153.929+142.975+153.829L129.337+153.829C123.634+154.533+120.229+157.536+119.121+162.837ZM141.012+165.806C141.046+165.671+141.063+165.554+141.063+165.453C141.063+165.353+141.08+165.235+141.113+165.101C141.147+164.933+141.163+164.782+141.163+164.648C141.163+164.48+141.18+164.313+141.214+164.145C141.348+164.145+141.465+164.153+141.566+164.17C141.667+164.187+141.751+164.195+141.818+164.195C141.818+164.229+141.826+164.254+141.843+164.271C141.86+164.288+141.868+164.313+141.868+164.346C141.801+165.017+141.692+165.613+141.541+166.133C141.39+166.653+141.13+167.097+140.761+167.466L141.012+165.806Z" opacity="1" fill="#812f33"/>
<path d="M162.149+176.776C160.471+177.38+159.364+178.504+158.827+180.148C159.163+181.49+160.136+181.591+161.746+180.45L162.199+177.078L162.149+176.776ZM163.105+170.687C163.407+169.714+163.021+169.127+161.948+168.926C161.813+168.959+161.662+169.001+161.495+169.052C161.327+169.102+161.142+169.194+160.941+169.328C161.142+170.603+160.773+171.811+159.834+172.952C160.035+172.918+160.237+172.859+160.438+172.776C160.639+172.692+160.857+172.583+161.092+172.448L162.954+171.794L163.105+170.687ZM153.845+169.832C155.187+166.98+157.553+165.168+160.941+164.397C164.397+163.893+167.164+164.682+169.245+166.762C169.614+167.366+169.882+168.121+170.05+169.026L170.1+169.53C170.033+170.033+170.05+170.452+170.15+170.788L168.741+180.802C171.19+180.165+172.012+181.289+171.207+184.174C169.832+186.153+167.919+187.16+165.47+187.193C164.095+187.328+162.92+186.808+161.948+185.633C156.345+188.72+152.789+187.78+151.279+182.815C151.212+179.158+153.074+176.34+156.865+174.361C154.248+174.159+153.241+172.65+153.845+169.832ZM152.688+169.58C152.587+170.15+152.537+170.721+152.537+171.291C152.537+172.935+153.074+174.076+154.147+174.713C151.463+176.793+150.121+179.443+150.121+182.664L150.121+183.016C150.725+185.231+151.765+186.791+153.241+187.697L154.852+189.307C155.925+190.381+157.284+190.917+158.928+190.917C160.438+190.917+162.199+190.414+164.212+189.408C165.084+190.28+166.192+190.716+167.533+190.716L167.986+190.716C170.737+190.682+172.952+189.475+174.629+187.093C174.898+186.086+175.032+185.348+175.032+184.878C175.032+183.939+174.797+183.235+174.327+182.765L174.227+182.715C174.26+182.715+174.277+182.731+174.277+182.765C174.277+182.765+174.294+182.765+174.327+182.765L172.616+181.054L173.723+173.254C173.656+173.086+173.614+172.935+173.598+172.801C173.581+172.666+173.572+172.599+173.572+172.599C173.572+172.532+173.581+172.432+173.598+172.297C173.614+172.163+173.623+172.046+173.623+171.945L173.572+171.442C173.505+170.972+173.388+170.503+173.22+170.033C173.052+169.563+172.818+169.093+172.516+168.624L170.402+166.561C170.335+166.46+170.234+166.275+170.1+166.007C168.154+164.061+165.739+163.088+162.853+163.088C162.048+163.088+161.327+163.138+160.689+163.239C156.965+164.078+154.332+166.108+152.789+169.328L152.688+169.58Z" opacity="1" fill="#812f33"/>
<path d="M189.022+170.586C188.586+170.352+187.982+170.234+187.21+170.234C186.573+170.469+185.969+170.855+185.399+171.392L183.99+181.305C184.594+182.044+185.449+182.413+186.556+182.413C186.858+182.312+187.152+182.178+187.437+182.01C187.722+181.842+188.016+181.641+188.318+181.406C190.867+177.347+191.102+173.74+189.022+170.586ZM182.681+164.397C182.816+164.262+183.084+164.128+183.487+163.994C184.594+163.793+185.499+164.128+186.204+165C192.847+162.283+196.755+164.581+197.93+171.895C198.03+176.424+196.353+180.618+192.897+184.476C190.012+187.16+186.774+188.099+183.185+187.294L182.581+191.421L183.134+191.873C185.114+191.572+186.003+192.41+185.801+194.39C185.198+196.067+183.906+196.705+181.926+196.302L172.969+196.302C172.667+196.134+172.382+195.799+172.113+195.296C172.013+193.115+173.103+191.89+175.384+191.622L178.303+170.586C175.955+170.553+175.317+169.295+176.391+166.812L176.944+166.309L179.36+165.504C179.528+165.47+179.704+165.42+179.888+165.353C180.073+165.286+180.283+165.202+180.517+165.101L182.681+164.397ZM180.064+164.044C179.796+164.212+179.477+164.313+179.108+164.346L176.391+165.252L175.435+166.158C174.965+167.131+174.73+168.003+174.73+168.775C174.73+169.882+175.183+170.687+176.089+171.19L176.894+172.046L174.328+190.666C172.08+191.337+170.956+192.796+170.956+195.044L170.956+195.597C171.493+196.503+172.046+197.124+172.617+197.459L172.717+197.459L174.529+199.271C174.73+199.506+174.965+199.69+175.233+199.825L184.342+199.825C184.543+199.892+184.745+199.925+184.946+199.925C185.147+199.925+185.332+199.925+185.499+199.925C187.345+199.925+188.62+198.986+189.324+197.107C189.324+197.007+189.332+196.881+189.349+196.73C189.366+196.579+189.374+196.47+189.374+196.403C189.374+195.396+189.106+194.625+188.569+194.088L186.657+192.175C186.59+192.108+186.548+192.041+186.531+191.974C186.514+191.907+186.472+191.84+186.405+191.773L186.556+191.018C186.825+191.052+187.076+191.068+187.311+191.068C187.58+191.068+187.848+191.068+188.116+191.068C191.069+191.068+193.652+190.028+195.866+187.948C199.59+183.788+201.452+179.41+201.452+174.814L201.452+174.26C200.949+171.106+199.959+168.792+198.483+167.315L197.024+165.906C195.615+163.793+193.602+162.736+190.985+162.736C189.676+162.736+188.167+163.055+186.456+163.692C185.751+163.088+184.963+162.786+184.09+162.786C183.923+162.786+183.772+162.786+183.637+162.786C183.503+162.786+183.336+162.82+183.134+162.887C182.597+163.122+182.262+163.289+182.128+163.39L180.215+163.994C180.182+164.028+180.148+164.044+180.115+164.044C180.081+164.044+180.064+164.044+180.064+164.044ZM189.274+175.116C189.274+176.357+188.888+177.749+188.116+179.292L188.871+174.411C188.938+174.378+189.039+174.294+189.173+174.159C189.207+174.327+189.232+174.487+189.249+174.638C189.265+174.788+189.274+174.948+189.274+175.116Z" opacity="1" fill="#812f33"/>
<path d="M211.517+170.939C211.014+169.865+210.125+169.362+208.85+169.429C206.602+170.234+205.78+171.744+206.384+173.958L211.517+170.939ZM199.44+175.518C200.245+169.949+203.549+166.259+209.353+164.447C213.144+164.078+215.828+165.118+217.405+167.567C219.016+169.983+218.932+171.694+217.154+172.7L206.686+178.739L206.686+179.393C209.169+182.782+212.205+182.027+215.795+177.129C216.164+176.994+216.667+176.927+217.305+176.927C219.25+177.665+219.502+179.058+218.059+181.104C214.637+186.841+209.857+189.005+203.717+187.596L202.258+186.791L201.603+186.288C199.121+183.503+198.4+179.913+199.44+175.518ZM197.829+179.192C197.829+182.278+198.836+184.929+200.849+187.143L201.855+187.948L203.465+189.559L204.371+190.263L205.68+191.018C206.451+191.219+207.164+191.353+207.818+191.421C208.473+191.488+209.102+191.521+209.706+191.521C214.57+191.521+218.462+189.089+221.381+184.224C221.75+183.687+222.035+183.184+222.236+182.715C222.438+182.245+222.538+181.792+222.538+181.356C222.538+180.618+222.27+179.98+221.733+179.443L219.871+177.632C219.703+177.229+219.452+176.91+219.116+176.676L220.173+176.072C220.777+175.703+221.247+175.275+221.582+174.788C221.918+174.302+222.085+173.723+222.085+173.052C222.085+172.046+221.649+170.872+220.777+169.53C220.609+169.261+220.441+169.026+220.274+168.825C220.106+168.624+219.921+168.423+219.72+168.221L218.412+166.913C216.801+164.464+214.252+163.239+210.762+163.239C210.461+163.239+210.175+163.239+209.907+163.239C209.672+163.239+209.42+163.256+209.152+163.289C202.845+165.269+199.221+169.345+198.282+175.518C197.98+176.894+197.829+178.118+197.829+179.192ZM210.611+182.01C210.578+182.01+210.553+182.002+210.536+181.985C210.519+181.968+210.494+181.96+210.461+181.96L210.611+182.01Z" opacity="1" fill="#812f33"/>
<path d="M229.634+164.548C230.775+164.346+231.647+164.682+232.251+165.554C235.74+163.608+238.072+164.128+239.246+167.114L238.894+169.781C238.827+169.915+238.751+170.05+238.667+170.184C238.584+170.318+238.475+170.469+238.34+170.637L238.24+170.838C236.294+172.482+234.365+172.516+232.452+170.939C232.285+171.106+232.125+171.308+231.974+171.543C231.823+171.777+231.647+172.029+231.446+172.297L230.188+181.154C230.154+181.356+230.129+181.574+230.112+181.809C230.096+182.044+230.121+182.295+230.188+182.564C231.597+182.53+232.603+182.983+233.207+183.922C233.308+184.694+233.09+185.549+232.553+186.489L231.849+186.992L220.626+186.992L220.022+186.791C219.284+185.65+219.502+184.392+220.677+183.016C220.811+182.949+220.962+182.899+221.13+182.865C221.297+182.832+221.482+182.798+221.683+182.765L222.79+182.463L224.401+170.939C222.321+171.14+221.566+170.134+222.136+167.919C222.371+167.517+222.74+167.148+223.243+166.812C223.813+166.678+224.568+166.41+225.508+166.007L226.665+165.755C226.866+165.554+227.135+165.453+227.47+165.453L227.772+165.252L228.225+165.151L229.332+164.749L229.634+164.548ZM228.879+163.692L227.823+164.044L227.37+164.145L227.118+164.346C226.749+164.413+226.447+164.514+226.212+164.648L225.357+164.849C224.786+165.118+224.3+165.311+223.897+165.428C223.495+165.546+223.142+165.655+222.841+165.755C221.935+166.359+221.331+166.913+221.029+167.416C220.895+167.953+220.828+168.54+220.828+169.177C220.828+170.553+221.297+171.459+222.237+171.895L222.941+172.65L221.733+181.557L221.532+181.607C221.264+181.641+221.012+181.683+220.777+181.733C220.542+181.784+220.291+181.893+220.022+182.06C219.519+182.664+219.125+183.251+218.84+183.822C218.555+184.392+218.412+184.929+218.412+185.432C218.412+185.835+218.479+186.22+218.613+186.589C218.748+186.959+218.949+187.344+219.217+187.747L219.569+187.898L221.884+190.162L222.991+190.515L234.667+190.515L235.824+189.71C236.16+189.139+236.394+188.619+236.529+188.15C236.663+187.68+236.73+187.244+236.73+186.841L236.73+186.187C236.562+185.885+236.327+185.583+236.025+185.281L234.365+183.62L234.365+183.57C234.298+183.436+234.214+183.318+234.113+183.218C234.012+183.117+233.912+183+233.811+182.865L234.918+175.216C234.985+175.149+235.036+175.09+235.069+175.04C235.103+174.99+235.136+174.931+235.17+174.864C235.975+175.367+236.847+175.619+237.787+175.619C238.995+175.619+240.253+175.065+241.561+173.958L241.762+173.606L241.813+173.556C241.98+173.354+242.106+173.187+242.19+173.052C242.274+172.918+242.349+172.767+242.417+172.599L242.819+169.479C242.618+169.01+242.4+168.573+242.165+168.171C241.93+167.768+241.662+167.433+241.36+167.164L239.749+165.604C238.776+164.028+237.468+163.239+235.824+163.239C234.851+163.239+233.711+163.541+232.402+164.145C231.698+163.608+230.976+163.34+230.238+163.34C230.104+163.34+229.961+163.348+229.81+163.365C229.659+163.382+229.433+163.424+229.131+163.491L228.93+163.642L228.879+163.692Z" opacity="1" fill="#812f33"/>
<path d="M243.323+162.031C244.732+158.374+247.399+156.076+251.324+155.137C253.84+154.835+256.222+155.254+258.47+156.395C259.51+154.986+260.835+154.634+262.446+155.338C262.546+155.472+262.639+155.607+262.723+155.741C262.806+155.875+262.882+156.026+262.949+156.194C262.983+156.63+262.949+157.267+262.848+158.106L262.848+158.811L262.899+159.264L262.798+159.918L262.848+160.22L262.748+161.729C262.748+162.166+262.697+162.652+262.597+163.189C262.664+163.457+262.689+163.734+262.672+164.019C262.656+164.304+262.614+164.631+262.546+165L262.597+165.504C262.563+165.839+262.505+166.175+262.421+166.51C262.337+166.846+262.228+167.181+262.094+167.517C261.221+168.288+260.232+168.607+259.124+168.473C258.957+168.406+258.764+168.305+258.546+168.171C258.328+168.037+258.118+167.886+257.917+167.718C257.212+162.048+254.897+159.935+250.972+161.377C249.16+163.558+250.804+166.108+255.904+169.026C261.305+172.113+262.798+176.793+260.383+183.067C256.457+189.475+251.022+191.202+244.078+188.25C242.903+189.458+241.561+189.81+240.052+189.307L239.498+188.502C239.431+187.999+239.431+187.361+239.498+186.589L239.498+185.835L239.498+185.08C239.465+184.442+239.465+183.922+239.498+183.52L239.448+181.708L239.498+181.305C239.431+181.138+239.406+180.928+239.423+180.676C239.439+180.425+239.465+180.165+239.498+179.896L239.498+179.292L239.8+177.28C240.706+176.307+241.847+175.954+243.222+176.223C243.591+176.424+243.893+176.743+244.128+177.179C244.933+182.547+247.483+184.694+251.777+183.62C252.012+183.453+252.247+183.243+252.482+182.991C252.717+182.74+252.951+182.446+253.186+182.111C253.589+181.037+253.572+179.98+253.136+178.94C252.968+178.705+252.758+178.454+252.507+178.185C252.255+177.917+251.945+177.649+251.576+177.38L250.972+176.827L250.771+176.625L246.946+173.857C246.845+173.79+246.711+173.698+246.543+173.581C246.376+173.463+246.191+173.321+245.99+173.153L245.638+172.801C245.269+172.532+244.9+172.146+244.53+171.643L243.625+170.486C242.35+168.137+242.249+165.319+243.323+162.031ZM242.216+161.629L242.216+161.679C241.947+162.484+241.754+163.256+241.637+163.994C241.519+164.732+241.461+165.47+241.461+166.208C241.461+167.953+241.83+169.546+242.568+170.989L243.625+172.348C244.094+172.952+244.53+173.405+244.933+173.707L245.235+174.008C245.336+174.109+245.461+174.227+245.612+174.361C245.763+174.495+245.906+174.612+246.04+174.713L247.047+175.669C247.114+175.736+247.198+175.812+247.298+175.896C247.399+175.979+247.483+176.055+247.55+176.122L247.852+176.424C248.02+176.558+248.187+176.692+248.355+176.827C248.523+176.961+248.657+177.061+248.758+177.129L248.858+177.179L252.129+179.594C252.264+179.896+252.331+180.215+252.331+180.551C252.331+180.886+252.247+181.272+252.079+181.708C251.844+182.077+251.593+182.345+251.324+182.513C251.022+182.58+250.737+182.631+250.469+182.664C250.2+182.698+249.965+182.715+249.764+182.715C249.194+182.715+248.724+182.631+248.355+182.463C248.02+181.591+247.785+180.584+247.651+179.443C247.449+179.041+247.198+178.689+246.896+178.387L245.185+176.726C244.816+176.089+244.262+175.535+243.524+175.065L243.423+175.065C243.289+175.032+243.155+175.007+243.021+174.99C242.887+174.973+242.685+174.965+242.417+174.965C241.008+174.965+239.766+175.552+238.693+176.726L238.341+179.142L238.341+179.896C238.341+179.93+238.332+179.955+238.315+179.972C238.299+179.989+238.29+180.014+238.29+180.047L238.29+180.198C238.29+180.265+238.282+180.316+238.265+180.349C238.248+180.383+238.24+180.433+238.24+180.5L238.24+180.702C238.24+180.802+238.24+180.92+238.24+181.054C238.24+181.154+238.257+181.272+238.29+181.406L238.29+181.658L238.341+183.469C238.307+183.637+238.29+183.788+238.29+183.922C238.29+184.023+238.29+184.124+238.29+184.224C238.29+184.392+238.29+184.56+238.29+184.727C238.29+184.895+238.307+185.063+238.341+185.231L238.341+186.489C238.307+186.69+238.29+186.891+238.29+187.093C238.29+187.294+238.29+187.479+238.29+187.646C238.29+187.881+238.29+188.099+238.29+188.3C238.29+188.502+238.307+188.67+238.341+188.804L239.397+190.313C239.532+190.381+239.632+190.414+239.699+190.414L241.964+192.679C242.702+192.914+243.339+193.031+243.876+193.031C244.95+193.031+245.94+192.679+246.845+191.974C248.892+192.779+250.838+193.182+252.683+193.182C257.179+193.182+260.903+190.75+263.855+185.885C264.627+183.906+265.012+182.027+265.012+180.249C265.012+177.397+264.023+174.981+262.043+173.002L260.785+171.794L260.634+171.643C260.903+171.777+261.188+171.895+261.49+171.996C261.59+171.996+261.708+172.004+261.842+172.021C261.976+172.037+262.077+172.046+262.144+172.046C263.352+172.046+264.459+171.576+265.465+170.637C265.633+170.234+265.767+169.815+265.868+169.379C265.969+168.943+266.052+168.49+266.119+168.02L266.069+167.668C266.17+167.332+266.22+166.913+266.22+166.41C266.22+166.242+266.212+166.099+266.195+165.982C266.178+165.864+266.17+165.772+266.17+165.705C266.203+165.437+266.229+165.193+266.245+164.975C266.262+164.757+266.27+164.514+266.27+164.246L266.371+162.635L266.321+162.434L266.421+161.83L266.371+161.226L266.371+160.622C266.405+160.354+266.43+160.111+266.447+159.893C266.463+159.675+266.472+159.431+266.472+159.163L266.472+158.458C266.338+158.224+266.212+157.997+266.094+157.779C265.977+157.561+265.818+157.318+265.616+157.049L263.654+155.137C263.587+155.036+263.519+154.927+263.452+154.81C263.385+154.692+263.285+154.55+263.15+154.382C262.312+154.013+261.574+153.829+260.936+153.829C259.997+153.829+259.091+154.214+258.219+154.986C256.508+154.248+254.729+153.879+252.884+153.879C252.582+153.879+252.297+153.887+252.029+153.904C251.76+153.921+251.492+153.946+251.224+153.98C246.762+155.02+243.759+157.569+242.216+161.629ZM253.79+165.655C253.79+165.353+253.891+165.051+254.092+164.749C254.696+164.548+255.233+164.447+255.702+164.447L255.904+164.447C256.306+165.42+256.608+166.678+256.81+168.221C256.642+168.188+256.524+168.121+256.457+168.02C255.954+167.752+255.493+167.483+255.073+167.215C254.654+166.946+254.26+166.678+253.891+166.41C253.824+166.074+253.79+165.822+253.79+165.655ZM255.048+167.919C254.914+167.819+254.797+167.701+254.696+167.567L255.048+167.919Z" opacity="1" fill="#812f33"/>
<path d="M264.711+178.991C264.811+171.677+268.468+166.93+275.681+164.749C280.546+164.145+283.565+165.638+284.74+169.228C284.941+172.415+283.297+174.092+279.808+174.26C278.03+173.488+277.074+171.912+276.939+169.53C276.235+169.463+275.53+169.597+274.826+169.932C273.215+171.174+272.293+172.851+272.058+174.965C271.689+177.078+272.259+178.907+273.769+180.45C276.285+181.557+278.684+180.551+280.965+177.43C281.67+177.095+282.391+177.095+283.129+177.43C284.002+178.101+284.253+179.041+283.884+180.249C281.167+185.18+277.392+187.613+272.561+187.546C267.73+187.143+265.113+184.291+264.711+178.991ZM263.553+179.091C263.788+182.849+265.097+185.533+267.479+187.143L268.938+188.552C270.414+190.028+272.427+190.867+274.977+191.068L275.228+191.068C280.429+191.068+284.438+188.502+287.256+183.369C287.457+182.631+287.558+182.094+287.558+181.758C287.558+180.886+287.222+180.114+286.551+179.443L284.79+177.682C284.756+177.615+284.689+177.531+284.589+177.43C287.038+176.659+288.262+174.931+288.262+172.247L288.262+171.593C287.826+170.284+287.172+169.194+286.3+168.322L285.947+168.02C286.015+168.087+286.065+168.121+286.098+168.121L284.941+166.963C283.398+164.615+280.965+163.44+277.644+163.44C276.906+163.44+276.185+163.491+275.48+163.591C267.63+165.973+263.654+171.106+263.553+178.991L263.553+179.091ZM275.48+178.689C275.48+178.521+275.488+178.345+275.505+178.16C275.522+177.976+275.547+177.783+275.581+177.581C275.715+176.105+276.285+174.847+277.292+173.807C277.459+174.008+277.652+174.193+277.87+174.361C278.089+174.528+278.315+174.696+278.55+174.864L280.211+176.525C278.667+178.672+277.174+179.745+275.732+179.745L275.53+179.745C275.463+179.578+275.438+179.41+275.455+179.242C275.472+179.074+275.48+178.89+275.48+178.689ZM276.99+182.262C276.956+182.262+276.923+182.245+276.889+182.211L276.99+182.262Z" opacity="1" fill="#812f33"/>
<path d="M296.264+164.648C297.036+164.648+297.707+165+298.277+165.705C298.277+166.175+298.252+166.728+298.202+167.366C298.151+168.003+298.042+168.708+297.875+169.479L296.063+182.513C297.069+182.547+297.942+182.916+298.68+183.62C298.713+183.889+298.705+184.207+298.655+184.577C298.604+184.946+298.546+185.365+298.478+185.835L298.428+186.086C298.294+186.22+298.16+186.355+298.026+186.489C297.891+186.623+297.74+186.757+297.573+186.891L286.048+186.891C285.042+185.784+285.109+184.526+286.25+183.117C286.988+182.849+287.759+182.715+288.565+182.715L288.816+182.513C288.95+181.876+289.101+181.071+289.269+180.098L290.527+171.14C288.347+171.408+287.407+170.536+287.709+168.523C287.81+168.355+287.927+168.162+288.061+167.944C288.196+167.726+288.38+167.5+288.615+167.265L296.264+164.648ZM293.194+163.038C290.209+160.421+290.695+157.938+294.654+155.59C296.969+155.187+298.562+156.076+299.435+158.257C299.2+162.216+297.12+163.809+293.194+163.038ZM288.011+166.259C287.642+166.628+287.374+166.955+287.206+167.24C287.038+167.525+286.87+167.785+286.703+168.02C286.669+168.053+286.644+168.087+286.627+168.121C286.61+168.154+286.585+168.188+286.552+168.221C286.518+168.355+286.501+168.506+286.501+168.674C286.501+168.842+286.501+169.01+286.501+169.177C286.501+170.654+287.021+171.61+288.061+172.046L289.068+173.052L288.112+179.947L288.112+179.896C288.078+179.997+288.061+180.081+288.061+180.148C288.061+180.215+288.045+180.299+288.011+180.4C287.978+180.601+287.944+180.802+287.91+181.004C287.877+181.205+287.843+181.406+287.81+181.607C287.441+181.641+287.072+181.7+286.703+181.784C286.334+181.867+285.965+181.976+285.596+182.111C284.656+183.318+284.186+184.358+284.186+185.231C284.186+186.103+284.639+187.042+285.545+188.049L285.746+188.049L288.112+190.414L300.441+190.414C300.709+190.213+300.911+190.045+301.045+189.911C301.179+189.777+301.313+189.642+301.448+189.508L301.9+189.055L302.001+188.502C302.068+188.099+302.119+187.747+302.152+187.445C302.186+187.143+302.202+186.808+302.202+186.438L302.202+185.684L299.837+183.318L301.397+172.197C301.565+171.425+301.674+170.662+301.724+169.907C301.775+169.152+301.8+168.473+301.8+167.869L301.649+167.768C301.582+167.701+301.54+167.642+301.523+167.592C301.506+167.542+301.464+167.483+301.397+167.416L300.139+166.208C301.817+165.336+302.756+163.457+302.957+160.572C302.588+159.633+302.135+158.894+301.599+158.358L299.888+156.697C298.881+155.12+297.472+154.332+295.66+154.332C295.291+154.332+294.998+154.34+294.78+154.357C294.562+154.374+294.369+154.399+294.201+154.432C291.483+156.11+290.125+157.871+290.125+159.716C290.125+161.159+290.913+162.568+292.49+163.944L292.792+164.095L293.194+164.497L288.011+166.259Z" opacity="1" fill="#812f33"/>
<path d="M305.826+178.135C305.994+182.127+307.604+183.604+310.657+182.564L311.009+181.658C310.909+181.49+310.808+181.331+310.708+181.18C310.607+181.029+310.473+180.869+310.305+180.702C310.07+180.534+309.701+180.333+309.198+180.098L307.436+178.991L306.883+178.789L305.826+178.135ZM311.966+169.479C311.496+169.278+310.942+169.177+310.305+169.177C309.399+169.546+309.114+170.1+309.449+170.838L311.915+172.398L312.72+172.901C312.888+173.036+313.031+173.128+313.148+173.178C313.266+173.228+313.341+173.27+313.375+173.304C313.341+172.063+312.871+170.788+311.966+169.479ZM302.404+170.939C303.176+167.718+305.524+165.621+309.449+164.648L313.073+164.648L313.878+164.749L315.237+165.252C316.143+164.849+317.065+164.816+318.004+165.151L318.608+165.957L317.954+172.7L317.552+173.505C316.948+173.975+316.126+174.277+315.086+174.411C319.078+176.827+319.548+180.165+316.495+184.426C313.006+187.512+308.896+188.334+304.165+186.891C303.293+187.328+302.354+187.445+301.347+187.244C300.844+187.109+300.492+186.757+300.29+186.187L301.347+178.588L301.498+178.135C302.471+177.464+303.528+177.129+304.669+177.129C302.656+175.787+301.901+173.723+302.404+170.939ZM301.247+170.687C301.146+171.257+301.096+171.861+301.096+172.499C301.096+174.008+301.498+175.317+302.303+176.424C301.767+176.659+301.163+176.994+300.492+177.43L300.19+178.336L299.083+186.338C299.452+187.277+300.005+187.915+300.743+188.25L302.505+190.011C302.874+190.381+303.293+190.632+303.763+190.766C303.931+190.8+304.09+190.825+304.241+190.842C304.392+190.859+304.568+190.867+304.769+190.867C305.507+190.867+306.162+190.75+306.732+190.515C308.242+190.917+309.667+191.119+311.009+191.119C314.264+191.119+317.166+189.978+319.716+187.697C321.225+185.549+321.98+183.62+321.98+181.909C321.98+180.265+321.359+178.823+320.118+177.581L319.816+177.33C319.984+177.229+320.16+177.129+320.345+177.028C320.529+176.927+320.705+176.81+320.873+176.676L321.477+175.518L322.181+168.171L321.125+166.812L319.414+165.151L318.659+164.145C317.921+163.877+317.283+163.742+316.746+163.742C316.243+163.742+315.74+163.826+315.237+163.994L314.18+163.591L313.173+163.491L309.349+163.491C304.82+164.598+302.136+166.98+301.297+170.637L301.247+170.687Z" opacity="1" fill="#812f33"/>
<path d="M325+178.135C325.168+182.127+326.778+183.604+329.831+182.564L330.183+181.658C330.083+181.49+329.982+181.331+329.881+181.18C329.781+181.029+329.646+180.869+329.479+180.702C329.244+180.534+328.875+180.333+328.372+180.098L326.61+178.991L326.057+178.789L325+178.135ZM331.139+169.479C330.67+169.278+330.116+169.177+329.479+169.177C328.573+169.546+328.288+170.1+328.623+170.838L331.089+172.398L331.894+172.901C332.062+173.036+332.205+173.128+332.322+173.178C332.439+173.228+332.515+173.27+332.548+173.304C332.515+172.063+332.045+170.788+331.139+169.479ZM321.578+170.939C322.349+167.718+324.698+165.621+328.623+164.648L332.247+164.648L333.052+164.749L334.41+165.252C335.316+164.849+336.239+164.816+337.178+165.151L337.782+165.957L337.128+172.7L336.725+173.505C336.121+173.975+335.299+174.277+334.259+174.411C338.252+176.827+338.722+180.165+335.669+184.426C332.179+187.512+328.07+188.334+323.339+186.891C322.467+187.328+321.527+187.445+320.521+187.244C320.018+187.109+319.666+186.757+319.464+186.187L320.521+178.588L320.672+178.135C321.645+177.464+322.702+177.129+323.842+177.129C321.829+175.787+321.075+173.723+321.578+170.939ZM320.42+170.687C320.32+171.257+320.269+171.861+320.269+172.499C320.269+174.008+320.672+175.317+321.477+176.424C320.94+176.659+320.336+176.994+319.666+177.43L319.364+178.336L318.256+186.338C318.625+187.277+319.179+187.915+319.917+188.25L321.678+190.011C322.048+190.381+322.467+190.632+322.937+190.766C323.104+190.8+323.264+190.825+323.415+190.842C323.566+190.859+323.742+190.867+323.943+190.867C324.681+190.867+325.335+190.75+325.906+190.515C327.415+190.917+328.841+191.119+330.183+191.119C333.438+191.119+336.34+189.978+338.889+187.697C340.399+185.549+341.154+183.62+341.154+181.909C341.154+180.265+340.533+178.823+339.292+177.581L338.99+177.33C339.158+177.229+339.334+177.129+339.518+177.028C339.703+176.927+339.879+176.81+340.047+176.676L340.651+175.518L341.355+168.171L340.298+166.812L338.587+165.151L337.832+164.145C337.094+163.877+336.457+163.742+335.92+163.742C335.417+163.742+334.914+163.826+334.41+163.994L333.354+163.591L332.347+163.491L328.523+163.491C323.993+164.598+321.309+166.98+320.471+170.637L320.42+170.687Z" opacity="1" fill="#812f33"/>
<path d="M351.924+169.882C351.655+169.748+351.387+169.639+351.118+169.555C350.85+169.471+350.531+169.412+350.162+169.379C349.592+169.546+349.055+169.815+348.552+170.184C347.076+172.163+346.472+174.378+346.74+176.827C346.639+178.739+347.109+180.517+348.149+182.161C348.652+182.53+349.273+182.731+350.011+182.765C350.481+182.597+350.984+182.329+351.521+181.96C352.796+180.215+353.467+178.252+353.534+176.072C353.836+173.723+353.299+171.66+351.924+169.882ZM339.041+178.336C338.94+171.325+342.396+166.762+349.407+164.648C356.62+163.877+360.529+166.862+361.133+173.606C360.999+180.785+357.509+185.365+350.665+187.344C343.654+188.317+339.779+185.315+339.041+178.336ZM337.883+178.437C338.286+182.496+339.695+185.365+342.11+187.042L343.57+188.451C345.281+190.162+347.68+191.018+350.766+191.018C351.605+191.018+352.46+190.968+353.333+190.867C360.713+188.753+364.488+183.805+364.655+176.021C364.354+172.801+363.381+170.368+361.737+168.724L360.328+167.366C358.583+164.715+355.631+163.39+351.471+163.39C351.102+163.39+350.716+163.39+350.313+163.39C349.944+163.39+349.575+163.424+349.206+163.491C341.657+165.772+337.883+170.62+337.883+178.034L337.883+178.437ZM352.477+174.864C352.477+175.032+352.469+175.208+352.452+175.392C352.435+175.577+352.41+175.77+352.376+175.971C352.309+177.917+351.773+179.628+350.766+181.104C350.699+181.171+350.632+181.213+350.565+181.23C350.498+181.247+350.431+181.289+350.363+181.356C350.33+181.087+350.305+180.836+350.288+180.601C350.271+180.366+350.263+180.114+350.263+179.846L350.263+179.192C350.229+179.024+350.212+178.873+350.212+178.739C350.212+178.605+350.212+178.454+350.212+178.286C350.212+176.441+350.749+174.814+351.823+173.405C352.024+173.27+352.158+173.187+352.225+173.153C352.393+173.757+352.477+174.327+352.477+174.864Z" opacity="1" fill="#812f33"/>
<path d="M371.45+164.548C372.59+164.346+373.463+164.682+374.066+165.554C377.556+163.608+379.887+164.128+381.061+167.114L380.709+169.781C380.642+169.915+380.567+170.05+380.483+170.184C380.399+170.318+380.29+170.469+380.156+170.637L380.055+170.838C378.109+172.482+376.18+172.516+374.268+170.939C374.1+171.106+373.941+171.308+373.79+171.543C373.639+171.777+373.463+172.029+373.261+172.297L372.003+181.154C371.97+181.356+371.944+181.574+371.928+181.809C371.911+182.044+371.936+182.295+372.003+182.564C373.412+182.53+374.419+182.983+375.023+183.922C375.123+184.694+374.905+185.549+374.368+186.489L373.664+186.992L362.442+186.992L361.838+186.791C361.1+185.65+361.318+184.392+362.492+183.016C362.626+182.949+362.777+182.899+362.945+182.865C363.113+182.832+363.297+182.798+363.498+182.765L364.605+182.463L366.216+170.939C364.136+171.14+363.381+170.134+363.951+167.919C364.186+167.517+364.555+167.148+365.058+166.812C365.629+166.678+366.384+166.41+367.323+166.007L368.48+165.755C368.682+165.554+368.95+165.453+369.286+165.453L369.588+165.252L370.04+165.151L371.148+164.749L371.45+164.548ZM370.695+163.692L369.638+164.044L369.185+164.145L368.933+164.346C368.564+164.413+368.262+164.514+368.028+164.648L367.172+164.849C366.602+165.118+366.115+165.311+365.713+165.428C365.31+165.546+364.958+165.655+364.656+165.755C363.75+166.359+363.146+166.913+362.844+167.416C362.71+167.953+362.643+168.54+362.643+169.177C362.643+170.553+363.113+171.459+364.052+171.895L364.756+172.65L363.549+181.557L363.347+181.607C363.079+181.641+362.827+181.683+362.593+181.733C362.358+181.784+362.106+181.893+361.838+182.06C361.334+182.664+360.94+183.251+360.655+183.822C360.37+184.392+360.227+184.929+360.227+185.432C360.227+185.835+360.294+186.22+360.429+186.589C360.563+186.959+360.764+187.344+361.032+187.747L361.385+187.898L363.7+190.162L364.807+190.515L376.482+190.515L377.639+189.71C377.975+189.139+378.21+188.619+378.344+188.15C378.478+187.68+378.545+187.244+378.545+186.841L378.545+186.187C378.377+185.885+378.143+185.583+377.841+185.281L376.18+183.62L376.18+183.57C376.113+183.436+376.029+183.318+375.928+183.218C375.828+183.117+375.727+183+375.626+182.865L376.734+175.216C376.801+175.149+376.851+175.09+376.885+175.04C376.918+174.99+376.952+174.931+376.985+174.864C377.79+175.367+378.663+175.619+379.602+175.619C380.81+175.619+382.068+175.065+383.376+173.958L383.578+173.606L383.628+173.556C383.796+173.354+383.922+173.187+384.005+173.052C384.089+172.918+384.165+172.767+384.232+172.599L384.634+169.479C384.433+169.01+384.215+168.573+383.98+168.171C383.745+167.768+383.477+167.433+383.175+167.164L381.565+165.604C380.592+164.028+379.283+163.239+377.639+163.239C376.666+163.239+375.526+163.541+374.217+164.145C373.513+163.608+372.792+163.34+372.053+163.34C371.919+163.34+371.777+163.348+371.626+163.365C371.475+163.382+371.248+163.424+370.946+163.491L370.745+163.642L370.695+163.692Z" opacity="1" fill="#812f33"/>
<path d="M386.446+178.135C386.614+182.127+388.225+183.604+391.278+182.564L391.63+181.658C391.529+181.49+391.428+181.331+391.328+181.18C391.227+181.029+391.093+180.869+390.925+180.702C390.69+180.534+390.321+180.333+389.818+180.098L388.057+178.991L387.503+178.789L386.446+178.135ZM392.586+169.479C392.116+169.278+391.563+169.177+390.925+169.177C390.019+169.546+389.734+170.1+390.07+170.838L392.536+172.398L393.341+172.901C393.509+173.036+393.651+173.128+393.769+173.178C393.886+173.228+393.961+173.27+393.995+173.304C393.961+172.063+393.492+170.788+392.586+169.479ZM383.024+170.939C383.796+167.718+386.144+165.621+390.07+164.648L393.693+164.648L394.498+164.749L395.857+165.252C396.763+164.849+397.685+164.816+398.625+165.151L399.229+165.957L398.575+172.7L398.172+173.505C397.568+173.975+396.746+174.277+395.706+174.411C399.698+176.827+400.168+180.165+397.115+184.426C393.626+187.512+389.516+188.334+384.786+186.891C383.913+187.328+382.974+187.445+381.968+187.244C381.464+187.109+381.112+186.757+380.911+186.187L381.968+178.588L382.119+178.135C383.091+177.464+384.148+177.129+385.289+177.129C383.276+175.787+382.521+173.723+383.024+170.939ZM381.867+170.687C381.766+171.257+381.716+171.861+381.716+172.499C381.716+174.008+382.119+175.317+382.924+176.424C382.387+176.659+381.783+176.994+381.112+177.43L380.81+178.336L379.703+186.338C380.072+187.277+380.626+187.915+381.364+188.25L383.125+190.011C383.494+190.381+383.913+190.632+384.383+190.766C384.551+190.8+384.71+190.825+384.861+190.842C385.012+190.859+385.188+190.867+385.39+190.867C386.128+190.867+386.782+190.75+387.352+190.515C388.862+190.917+390.288+191.119+391.63+191.119C394.884+191.119+397.786+189.978+400.336+187.697C401.846+185.549+402.6+183.62+402.6+181.909C402.6+180.265+401.98+178.823+400.738+177.581L400.436+177.33C400.604+177.229+400.78+177.129+400.965+177.028C401.149+176.927+401.326+176.81+401.493+176.676L402.097+175.518L402.802+168.171L401.745+166.812L400.034+165.151L399.279+164.145C398.541+163.877+397.904+163.742+397.367+163.742C396.863+163.742+396.36+163.826+395.857+163.994L394.8+163.591L393.794+163.491L389.969+163.491C385.44+164.598+382.756+166.98+381.917+170.637L381.867+170.687Z" opacity="1" fill="#812f33"/>
</g>
</g>
</svg>
